# xmcd
#
# Track frame offsets: 
#        150
#        15501
#        31568
#        44698
#        59690
#        89542
#        106021
#        133677
#        156686
#        182316
#        196629
#        224047
#        238894
#        257224
#        273485
#        292026
#        314323
#
# Disc length: 4460 seconds
#
# Revision: 1
# Processed by: cddbd v1.5.2PL0 Copyright (c) Steve Scherf et al.
# Submitted via: ExactAudioCopyFreeDBPlugin 1.0
#
DISCID=fd116a11
DTITLE=Hear Me Howling! Blues, Ballads, and Beyond - Hear Me Howlin  CD 
DTITLE=3
DYEAR=2010
DGENRE=Blues
TTITLE0=Mance Lipscomb  - Willie Poor Boy
TTITLE1=Mance Lipscomb  - The Titanic
TTITLE2=Mance Lipscomb  - Mean Boss Man
TTITLE3=Mance Lipscomb  - Sugar Babe
TTITLE4=Rev. Louis Overstreet  - Working On A Building (Unreleased)
TTITLE5=Rev. Louis Overstreet  - The Old Ship Of Zion (Unreleased)
TTITLE6=Rev. Gary Davis  - I`m A Soldier (Unreleased)
TTITLE7=Rev. Gary Davis  - Floor Sweepin' Rag (Unreleased)
TTITLE8=Rev. Gary Davis  - Courtin' Boy (Unreleased)
TTITLE9=Fred McDowell  - Shake 'Em On Down
TTITLE10=Fred McDowell  - Louise
TTITLE11=Fred McDowell  - Write Me A Few Of Your Lines (Unreleased)
TTITLE12=Skip James - Lown Down Dirty Things (Unreleased)
TTITLE13=Skip James  - 22-20 Blues ( Mr. Kress ) (Unreleased)
TTITLE14=Skip James  - Sea Walking Jesus (Unreleased)
TTITLE15=Skip James  - No Special Lover (Unreleased)
TTITLE16=Skip James  - Peace In The Valley (Unreleased)
EXTD=YEAR: 2010
EXTT0=
EXTT1=
EXTT2=
EXTT3=
EXTT4=
EXTT5=
EXTT6=
EXTT7=
EXTT8=
EXTT9=
EXTT10=
EXTT11=
EXTT12=
EXTT13=
EXTT14=
EXTT15=
EXTT16=
PLAYORDER=
